# xmcd
#
# Track frame offsets:
#	150
#	17437
#	43497
#	71795
#	89985
#	103015
#	121595
#	134852
#	160840
#	176897
#	192060
#	216067
#	232507
#
# Disc length: 3303 seconds
#
# Revision: 1
# Processed by: cddbd v1.5.2PL0 Copyright (c) Steve Scherf et al.
# Submitted via: audiograbber 1.83.01
#
DISCID=b80ce50d
DTITLE=Piet Veerman - Rollin on a River 
DYEAR=2003
DGENRE=Pop
TTITLE0=Blue Bayou
TTITLE1=Living to Love You
TTITLE2=Lonely People
TTITLE3=Maria
TTITLE4=Mexican Divorce
TTITLE5=Please Comme to Boston
TTITLE6=Rocky Mountain Sweet
TTITLE7=Rollin on a River 
TTITLE8=Third Rate Romance
TTITLE9=Town´s Fair
TTITLE10=Yesterday
TTITLE11=Xou can lay my mind at Rest
TTITLE12=You Needed me
EXTD=
EXTT0=
EXTT1=
EXTT2=
EXTT3=
EXTT4=
EXTT5=
EXTT6=
EXTT7=
EXTT8=
EXTT9=
EXTT10=
EXTT11=
EXTT12=
PLAYORDER=
